<svg id="Layer_1" data-name="Layer 1" xmlns="http://www.w3.org/2000/svg" viewBox="0 0 612 389.36"><defs><style>.cls-1,.cls-8{fill:#152f55;}.cls-2{fill:#fdb517;}.cls-3{fill:#bde1f7;}.cls-4{fill:#00a9db;}.cls-5{fill:#0e497b;}.cls-6{fill:#026aac;}.cls-7{fill:#ffcb18;}.cls-8{font-size:25.27px;font-family:Gibson-Regular, Gibson;}.cls-9{letter-spacing:-0.01em;}</style></defs><path class="cls-1" d="M237.43,216.26l3.26,3.72-2.7,2.4-3.38-3.9a16.3,16.3,0,0,1-8.31,2.19c-8.3,0-15.24-5.78-15.24-15.24s6.94-15.25,15.24-15.25,15.24,5.78,15.24,15.25A15.21,15.21,0,0,1,237.43,216.26ZM226.3,193.78c-6,0-11,4.32-11,11.56s5,11.56,11,11.56a11.34,11.34,0,0,0,5.65-1.46l-2.48-2.82,2.7-2.4,2.52,2.91a12,12,0,0,0,2.62-7.79C237.31,198.1,232.34,193.78,226.3,193.78Z"/><path class="cls-1" d="M263.25,220.15h-4l0-2.91a7.07,7.07,0,0,1-6.29,3.38c-2.91,0-4.58-1-5.65-2.35s-1.5-3.38-1.5-6.29V199.77h4.07v12c0,2.79.6,5.4,4.24,5.4s5-3.08,5-6.51V199.77h4.11Z"/><path class="cls-1" d="M284.7,220.15h-4l0-2.57a8.37,8.37,0,0,1-6.46,3c-3.77,0-7-2.35-7-6.29s3.26-6,8-6.21l5.44-.21v-.81c0-3.09-2.1-4.63-5.06-4.63a12.48,12.48,0,0,0-6.12,1.76l-1.24-2.74a15.62,15.62,0,0,1,7.62-2.06c3.38,0,5.35.94,6.72,2.31s2.19,3.13,2.19,6.6Zm-4.07-9.76-4.75.3c-3.3.17-4.63,1.59-4.63,3.51s1.5,3.51,4.2,3.51a6.38,6.38,0,0,0,5.18-3Z"/><path class="cls-1" d="M307.64,220.15h-4.11V208.81c0-3.43-.6-6-4.24-6-3.81,0-5.22,3.22-5.22,7.11v10.23H290V199.82h4.11l0,3.21h.13a6.87,6.87,0,0,1,6.2-3.6c5.78,0,7.28,3.81,7.28,8.69Z"/><path class="cls-1" d="M323,219.94a10.33,10.33,0,0,1-3.72.68,4.78,4.78,0,0,1-4.33-2.09c-.86-1.29-1-2.87-1-6.08v-9.29h-3v-3.3h3v-6.08H318v6.08h4.88v3.3H318v9.2a8,8,0,0,0,.52,3.73,2.12,2.12,0,0,0,2.1,1,5,5,0,0,0,2.09-.47Z"/><path class="cls-1" d="M343.73,220.15h-4l0-2.91a7.1,7.1,0,0,1-6.3,3.38c-2.91,0-4.58-1-5.65-2.35s-1.5-3.38-1.5-6.29V199.77h4.07v12c0,2.79.6,5.4,4.24,5.4s5.05-3.08,5.05-6.51V199.77h4.11Z"/><path class="cls-1" d="M378.84,220.15h-4.07V208.29c0-2.35-.43-5.48-3.73-5.48s-4.88,3.13-4.88,6.77v10.57h-4.11V208.29c0-3-.72-5.48-3.68-5.48-3.25,0-4.88,3.13-4.88,6.77v10.57h-4.11V199.82h4.11l0,3.21h.13a6.69,6.69,0,0,1,5.86-3.6c3,0,5.1,1.37,6,4a7.06,7.06,0,0,1,6.46-4c5.44,0,6.9,4,6.9,8.39Z"/><path class="cls-2" d="M419.34,190.61l-8.52,29.59h-4.07l-7.11-23.89-7.06,23.89h-4.07L380,190.61h4.37l6.38,23.29,6.8-23.29h4.24l6.81,23.29L415,190.61Z"/><path class="cls-2" d="M429.65,220.62c-6.08,0-10.79-4.23-10.79-10.57s4.71-10.62,10.79-10.62a10.36,10.36,0,0,1,10.75,10.62C440.4,216.39,435.69,220.62,429.65,220.62Zm0-17.85c-4.11,0-6.64,3.17-6.64,7.15s2.53,7.19,6.64,7.19,6.59-3.16,6.59-7.19S433.72,202.77,429.65,202.77Z"/><path class="cls-2" d="M455.77,203.58h-.18a5.39,5.39,0,0,0-2.22-.42,4.25,4.25,0,0,0-3.34,1.71,9,9,0,0,0-1.24,5.14v10.14h-4.11V199.82h4.11l-.05,3.12h.13a5.32,5.32,0,0,1,5-3.51,5.75,5.75,0,0,1,2.14.34Z"/><path class="cls-2" d="M477.43,220.15h-4.8l-7-9.84-2.35,2.22v7.62h-4.07V190.61h4.07V208l8.31-8.13h4.79l-8,7.66Z"/><polygon class="cls-3" points="197 187.02 182.2 195.38 162.97 184.44 162.97 167.39 197 187.02"/><polygon class="cls-4" points="128.94 187.02 143.75 195.38 162.97 184.44 162.97 167.39 128.94 187.02"/><polygon class="cls-5" points="128.7 226.25 143.7 217.88 162.8 228.75 162.73 245.88 128.7 226.25"/><polygon class="cls-2" points="182.34 234.86 182.24 217.88 205.91 231.28 205.83 248.41 182.34 234.86"/><polygon class="cls-6" points="128.94 187.02 143.75 195.38 143.7 217.88 128.67 226.3 128.94 187.02"/><polygon class="cls-7" points="197 187.02 182.22 195.38 182.24 217.88 197.28 226.43 197 187.02"/><polygon class="cls-2" points="162.8 206.89 162.8 189.57 148.15 198.23 162.8 206.89"/><polygon class="cls-5" points="148.15 198.23 162.8 206.89 162.8 189.57 148.15 198.23"/><polygon class="cls-2" points="148.15 198.23 162.72 206.84 148.35 215.25 148.15 198.23"/><polygon class="cls-6" points="177.46 198.23 162.8 206.89 162.8 189.57 177.46 198.23"/><polygon class="cls-7" points="148.32 215.24 162.72 206.84 162.8 223.88 148.32 215.24"/><polygon class="cls-3" points="177.26 215.24 162.72 206.84 162.8 223.88 177.26 215.24"/><polygon class="cls-4" points="177.46 198.23 162.8 206.89 177.26 215.25 177.46 198.23"/><text class="cls-8" transform="translate(380.37 247.04)"><tspan class="cls-9">A</tspan><tspan x="16.2" y="0">dvisory</tspan></text></svg>